<svg width="33" height="32" viewBox="0 0 33 32" fill="none" xmlns="http://www.w3.org/2000/svg">
<path d="M16.5 19.75C18.6401 19.75 20.375 18.0711 20.375 16C20.375 13.9289 18.6401 12.25 16.5 12.25C14.3599 12.25 12.625 13.9289 12.625 16C12.625 18.0711 14.3599 19.75 16.5 19.75Z" stroke="#0A122A" stroke-width="3" stroke-linecap="round" stroke-linejoin="round"/>
<path d="M26.0584 19.75C25.8864 20.127 25.8351 20.5452 25.9111 20.9507C25.9871 21.3562 26.1868 21.7304 26.4846 22.025L26.5621 22.1C26.8023 22.3322 26.9928 22.6079 27.1228 22.9114C27.2528 23.2149 27.3198 23.5402 27.3198 23.8688C27.3198 24.1973 27.2528 24.5226 27.1228 24.8261C26.9928 25.1296 26.8023 25.4053 26.5621 25.6375C26.3222 25.8699 26.0373 26.0543 25.7237 26.1802C25.41 26.306 25.0739 26.3707 24.7344 26.3707C24.3949 26.3707 24.0587 26.306 23.7451 26.1802C23.4315 26.0543 23.1466 25.8699 22.9067 25.6375L22.8292 25.5625C22.5248 25.2743 22.1381 25.081 21.7191 25.0075C21.3001 24.934 20.8679 24.9836 20.4784 25.15C20.0963 25.3085 19.7705 25.5716 19.541 25.9069C19.3115 26.2423 19.1883 26.6353 19.1867 27.0375V27.25C19.1867 27.913 18.9145 28.5489 18.43 29.0178C17.9456 29.4866 17.2885 29.75 16.6034 29.75C15.9182 29.75 15.2611 29.4866 14.7767 29.0178C14.2922 28.5489 14.02 27.913 14.02 27.25V27.1375C14.01 26.7238 13.8716 26.3225 13.6228 25.9859C13.3741 25.6493 13.0264 25.3929 12.625 25.25C12.2354 25.0836 11.8033 25.034 11.3843 25.1075C10.9652 25.181 10.5786 25.3743 10.2742 25.6625L10.1967 25.7375C9.95676 25.9699 9.67185 26.1543 9.35824 26.2801C9.04463 26.406 8.70847 26.4707 8.36898 26.4707C8.02949 26.4707 7.69333 26.406 7.37972 26.2801C7.0661 26.1543 6.78119 25.9699 6.54127 25.7375C6.30108 25.5053 6.11054 25.2296 5.98053 24.9261C5.85053 24.6226 5.78361 24.2973 5.78361 23.9688C5.78361 23.6402 5.85053 23.3149 5.98053 23.0114C6.11054 22.7079 6.30108 22.4322 6.54127 22.2L6.61877 22.125C6.91655 21.8304 7.1163 21.4562 7.19228 21.0507C7.26825 20.6452 7.21696 20.227 7.04502 19.85C6.88129 19.4803 6.60941 19.165 6.26287 18.9429C5.91633 18.7208 5.51024 18.6016 5.0946 18.6H4.87502C4.18988 18.6 3.5328 18.3366 3.04833 17.8678C2.56386 17.3989 2.29169 16.763 2.29169 16.1C2.29169 15.437 2.56386 14.8011 3.04833 14.3322C3.5328 13.8634 4.18988 13.6 4.87502 13.6H4.99127C5.4188 13.5903 5.83344 13.4564 6.18128 13.2156C6.52912 12.9749 6.79407 12.6384 6.94169 12.25C7.11363 11.873 7.16492 11.4548 7.08894 11.0493C7.01297 10.6438 6.81321 10.2696 6.51544 9.975L6.43794 9.9C6.19775 9.66782 6.0072 9.3921 5.8772 9.0886C5.7472 8.78511 5.68028 8.45979 5.68028 8.13125C5.68028 7.80271 5.7472 7.47739 5.8772 7.1739C6.0072 6.8704 6.19775 6.59468 6.43794 6.3625C6.67786 6.13006 6.96277 5.94566 7.27638 5.81985C7.58999 5.69404 7.92616 5.62928 8.26565 5.62928C8.60514 5.62928 8.9413 5.69404 9.25491 5.81985C9.56852 5.94566 9.85343 6.13006 10.0934 6.3625L10.1709 6.4375C10.4753 6.72567 10.8619 6.91898 11.2809 6.99251C11.6999 7.06603 12.1321 7.01639 12.5217 6.85H12.625C13.0071 6.69155 13.3329 6.42844 13.5624 6.09308C13.7919 5.75772 13.915 5.36473 13.9167 4.9625V4.75C13.9167 4.08696 14.1889 3.45107 14.6733 2.98223C15.1578 2.51339 15.8149 2.25 16.5 2.25C17.1852 2.25 17.8422 2.51339 18.3267 2.98223C18.8112 3.45107 19.0834 4.08696 19.0834 4.75V4.8625C19.085 5.26473 19.2082 5.65772 19.4377 5.99308C19.6672 6.32844 19.993 6.59155 20.375 6.75C20.7646 6.91639 21.1968 6.96603 21.6158 6.89251C22.0348 6.81898 22.4214 6.62567 22.7259 6.3375L22.8034 6.2625C23.0433 6.03006 23.3282 5.84566 23.6418 5.71985C23.9554 5.59404 24.2916 5.52928 24.6311 5.52928C24.9706 5.52928 25.3067 5.59404 25.6203 5.71985C25.9339 5.84566 26.2188 6.03006 26.4588 6.2625C26.699 6.49468 26.8895 6.7704 27.0195 7.0739C27.1495 7.37739 27.2164 7.70271 27.2164 8.03125C27.2164 8.35979 27.1495 8.68511 27.0195 8.9886C26.8895 9.2921 26.699 9.56782 26.4588 9.8L26.3813 9.875C26.0835 10.1696 25.8837 10.5438 25.8078 10.9493C25.7318 11.3548 25.7831 11.773 25.955 12.15V12.25C26.1188 12.6197 26.3906 12.935 26.7372 13.1571C27.0837 13.3792 27.4898 13.4984 27.9054 13.5H28.125C28.8102 13.5 29.4672 13.7634 29.9517 14.2322C30.4362 14.7011 30.7084 15.337 30.7084 16C30.7084 16.663 30.4362 17.2989 29.9517 17.7678C29.4672 18.2366 28.8102 18.5 28.125 18.5H28.0088C27.5931 18.5016 27.187 18.6208 26.8405 18.8429C26.494 19.065 26.2221 19.3803 26.0584 19.75Z" stroke="#0A122A" stroke-width="3" stroke-linecap="round" stroke-linejoin="round"/>
</svg>
